<?xml version="1.0" encoding="UTF-8" standalone="no"?>
<!-- Created with Inkscape (http://www.inkscape.org/) -->

<svg
   version="1.1"
   id="svg1005"
   width="192mm"
   height="192mm"
   viewBox="0 0 5000 5000"
   sodipodi:docname="5-spacers.svg"
   inkscape:version="1.2.2 (b0a8486541, 2022-12-01)"
   xmlns:inkscape="http://www.inkscape.org/namespaces/inkscape"
   xmlns:sodipodi="http://sodipodi.sourceforge.net/DTD/sodipodi-0.dtd"
   xmlns="http://www.w3.org/2000/svg"
   xmlns:svg="http://www.w3.org/2000/svg">
  <defs
     id="defs1009" />
  <sodipodi:namedview
     id="namedview1007"
     pagecolor="#ffffff"
     bordercolor="#666666"
     borderopacity="1.0"
     inkscape:showpageshadow="2"
     inkscape:pageopacity="0.0"
     inkscape:pagecheckerboard="0"
     inkscape:deskcolor="#d1d1d1"
     showgrid="false"
     inkscape:zoom="0.98542401"
     inkscape:cx="595.68267"
     inkscape:cy="147.65218"
     inkscape:window-width="2302"
     inkscape:window-height="1578"
     inkscape:window-x="3456"
     inkscape:window-y="20"
     inkscape:window-maximized="1"
     inkscape:current-layer="g1011"
     inkscape:document-units="mm" />
  <g
     inkscape:groupmode="layer"
     inkscape:label="Image"
     id="g1011">
    <path
       style="fill:none;stroke:#ff0000;stroke-width:5.20833318;stroke-dasharray:none;stroke-opacity:1"
       d="m 1527.5,769.9407 c -3.85,-1.06643 -8.8974,-2.38789 -11.2165,-2.93657 -4.3169,-1.02135 -8.853,-2.892 -20.2835,-8.36473 -29.0973,-13.93134 -53.2765,-41.54973 -64.4697,-73.6394 -8.997,-25.79383 -9.3169,-56.33434 -0.8586,-82 3.3204,-10.07556 12.2805,-27.90492 18.3429,-36.5 13.7227,-19.45552 36.1901,-36.34211 60.9854,-45.83679 14.2614,-5.46102 24.9547,-7.16321 45,-7.16321 17.1132,0 19.3212,0.21374 29.4544,2.85127 30.8122,8.01997 55.2525,24.04266 73.7258,48.33344 20.7173,27.24148 29.4971,62.66479 24.3866,98.39123 -1.3771,9.6269 -5.1155,22.98911 -8.5119,30.42406 -1.005,2.2 -2.3352,5.125 -2.956,6.5 -7.275,16.11353 -22.9661,35.06104 -38.4989,46.48852 -15.6052,11.48081 -28.728,17.59446 -48.5391,22.61346 -10.7063,2.71236 -12.6603,2.89417 -30.5,2.83785 -15.6556,-0.0494 -20.3115,-0.40657 -26.0609,-1.99913 z m 42.9408,-80.3822 c 14.2019,-5.34559 22.3505,-12.77845 28.5676,-26.0585 8.5839,-18.33569 5.1547,-39.56892 -8.8302,-54.67423 -4.7096,-5.08689 -9.6358,-8.82577 -11.6285,-8.82577 -0.3024,0 -0.5497,3.825 -0.5497,8.5 v 8.5 h -23.5 -23.5 v -8.5 c 0,-4.675 -0.2473,-8.5 -0.5497,-8.5 -1.8087,0 -6.6536,3.52853 -11.269,8.20728 -14.7468,14.94912 -18.2524,36.10684 -9.3148,56.2188 4.0773,9.17502 14.8125,19.42107 24.6308,23.50842 4.2304,1.76113 9.5617,3.59916 11.8472,4.08452 6.2895,1.33565 16.8853,0.25368 24.0963,-2.46052 z M 1835.5,769.1019 c -39.1374,-10.16203 -68.6046,-33.57131 -85.6428,-68.03613 -12.2422,-24.76351 -16.1903,-49.27329 -12.4139,-77.06577 1.9165,-14.10414 6.5939,-29.21541 12.2265,-39.5 0.9036,-1.65 2.4487,-4.61631 3.4335,-6.59179 2.4771,-4.9691 13.2364,-19.32798 19.2401,-25.67703 2.7403,-2.89786 8.3965,-7.84786 12.5695,-11 4.1729,-3.15215 7.8121,-6.01085 8.0871,-6.35267 0.275,-0.34181 4.325,-2.68386 9,-5.20454 21.2067,-11.4343 37.412,-15.88456 60,-16.47704 30.3074,-0.79496 53.0418,6.0783 79.0693,23.90485 47.8255,32.75635 67.1031,97.04097 45.753,152.57195 -3.8,9.88362 -11.9804,24.69197 -18.1339,32.82627 -5.4414,7.19297 -21.1265,21.90342 -28.2324,26.47812 -3.8258,2.46297 -7.181,4.74655 -7.456,5.07462 -0.9619,1.14751 -13.5656,7.09731 -21,9.91343 -17.9512,6.79982 -21.7935,7.46813 -44.5,7.74023 -20.2791,0.24301 -21.3776,0.15361 -32,-2.6045 z m 45.5426,-79.34118 c 3.5516,-1.24512 8.5105,-3.47016 11.0199,-4.94454 5.75,-3.37847 14.3663,-12.78861 17.6865,-19.31618 8.6412,-16.98859 6.1665,-40.21786 -5.7614,-54.08012 C 1900.7097,607.61048 1891.9607,600 1890.8592,600 c -0.4726,0 -0.8592,3.825 -0.8592,8.5 v 8.5 h -24 -24 v -8.5 c 0,-4.675 -0.2339,-8.5 -0.5199,-8.5 -1.6584,0 -8.7329,5.48727 -12.5545,9.73785 -4.3399,4.827 -7.1644,9.63052 -10.4444,17.76215 -2.1311,5.2833 -2.2269,24.28453 -0.1513,30 2.3195,6.38708 6.6446,14.11018 10.2812,18.35871 6.0822,7.10578 17.8695,13.61772 29.3889,16.23614 5.4092,1.22955 15.9125,0.16561 23.0426,-2.33413 z m 275.4574,81.5621 c -10.6825,-2.37781 -22.3194,-5.77082 -28.5,-8.30986 -7.6329,-3.13566 -23.7771,-12.01501 -27.4665,-15.10674 -1.1184,-0.93723 -5.0558,-4.23978 -8.7496,-7.33901 -3.6939,-3.09924 -9.2519,-8.65723 -12.3511,-12.35109 -3.0992,-3.69387 -6.5287,-7.7771 -7.621,-9.07386 -2.8196,-3.34743 -7.2869,-11.27132 -11.9197,-21.14226 -2.1941,-4.675 -4.3948,-9.24516 -4.8904,-10.1559 -0.4956,-0.91075 -2.3009,-7.31315 -4.0118,-14.22757 -2.8808,-11.64224 -3.1116,-13.86701 -3.1214,-30.09308 -0.01,-9.63677 0.5152,-20.10937 1.158,-23.27243 5.4305,-26.72249 15.5715,-46.91771 32.8062,-65.33189 18.8329,-20.1218 37.4398,-31.13616 65.1673,-38.5758 9.8349,-2.63882 11.7353,-2.81616 30,-2.79955 17.8477,0.0162 20.3714,0.2435 29.7844,2.6821 14.7514,3.82164 34.4875,11.98699 37.371,15.46137 0.5992,0.72201 1.5366,1.31275 2.0831,1.31275 2.2053,0 11.873,7.95388 22.3921,18.42267 18.6712,18.58198 29.4369,37.99625 35.5323,64.07733 2.0026,8.56893 2.3323,12.57592 2.3036,28 -0.03,16.36862 -0.2873,18.99597 -2.834,28.9892 -1.5402,6.04405 -3.6627,12.88186 -4.7165,15.19513 -1.0538,2.31327 -1.916,4.56414 -1.916,5.00195 0,1.30759 -6.8062,14.3524 -11.0173,21.11569 -2.1581,3.46609 -6.7496,9.49943 -10.2033,13.40744 -7.019,7.94235 -22.4275,21.77654 -26.5754,23.86019 -1.4872,0.74708 -3.9663,2.21037 -5.5092,3.25176 -2.9624,1.99957 -10.8624,5.9065 -19.1948,9.49278 -2.75,1.18361 -10.3361,3.50963 -16.858,5.16894 -11.2278,2.85661 -12.8485,3.01076 -30.5,2.90092 -10.2531,-0.0638 -19.542,-0.31633 -20.642,-0.56118 z m 27.7022,-79.35241 c 6.1886,-1.14402 16.7624,-5.03782 19.3372,-7.12089 16.3941,-13.26346 22.7585,-24.90208 22.8849,-41.84952 0.079,-10.62936 -2.1611,-18.07749 -8.2255,-27.34546 -3.8788,-5.9277 -14.0968,-15.65194 -16.4488,-15.65391 -0.4125,-3.5e-4 -0.75,3.83251 -0.75,8.51747 v 8.5181 l -23.75,-0.2681 -23.75,-0.2681 -0.2907,-8.26342 c -0.2876,-8.17798 -0.3135,-8.25127 -2.5,-7.08769 -6.9748,3.71175 -16.437,14.7629 -18.8947,22.06753 -0.6076,1.80597 -1.4221,3.73358 -1.81,4.28358 -1.5541,2.20372 -3.2497,13.83281 -2.7354,18.76033 1.2355,11.8366 7.4222,24.39296 15.8973,32.26473 6.6033,6.13331 10.0354,8.2106 18.0153,10.90403 11.0434,3.72745 14.525,4.11179 23.0204,2.54132 z M 2466,771.03905 c -31.7393,-7.38806 -50.2725,-17.45557 -70.5597,-38.32914 -18.6622,-19.2015 -28.0731,-36.74048 -34.185,-63.70991 -4.935,-21.77645 -3.3308,-46.74868 4.4005,-68.5 15.2402,-42.87676 50.4206,-74.28063 94.8442,-84.66289 8.5877,-2.00703 12.6128,-2.33608 28.5,-2.32982 17.0612,0.007 19.3555,0.22814 29.5,2.84702 14.2025,3.66649 26.049,8.48506 37,15.04983 6.6395,3.98018 21.9724,16.26649 27.1142,21.72681 14.2626,15.14591 24.7539,33.75847 31.3283,55.57912 5.3338,17.70325 5.3487,48.54234 0.033,67.8455 -12.511,45.43007 -46.6693,79.28121 -92.9753,92.13923 -8.6697,2.40736 -11.3354,2.66068 -30.5,2.89844 -11.55,0.14328 -22.575,-0.1061 -24.5,-0.55419 z m 38.1191,-81.33661 c 15.8079,-5.6204 25.9085,-15.90169 31.6365,-32.20244 2.1517,-6.1234 2.405,-8.25228 2.0228,-17 -0.2403,-5.5 -0.9246,-10.9 -1.5207,-12 -0.5961,-1.1 -2.2527,-4.52952 -3.6813,-7.62115 -1.4286,-3.09163 -4.4914,-7.77279 -6.8062,-10.40258 C 2521.6258,605.768 2514.5122,600 2512.85,600 c -0.4675,0 -0.85,3.825 -0.85,8.5 v 8.5 h -23.5 -23.5 v -8.5 c 0,-6.55522 -0.3153,-8.5 -1.3783,-8.5 -2.6745,0 -15.214,12.75748 -18.361,18.68019 -6.2889,11.83574 -7.8556,25.24925 -4.3719,37.43094 2.3093,8.07514 3.2509,9.90008 8.7141,16.88897 7.4669,9.55211 19.5484,16.88347 31.3971,19.05263 6.5246,1.19447 15.8017,0.25135 23.1191,-2.35029 z M 2769.5,769.08062 c -52.7945,-13.47167 -89.603,-53.84707 -98.0458,-107.54672 -3.5121,-22.33893 0.143,-50.68557 9.0325,-70.04892 0.7613,-1.65825 1.8504,-4.13325 2.4204,-5.5 1.4065,-3.37265 5.6433,-10.38713 11.2724,-18.66251 16.6601,-24.49204 43.7041,-42.72941 75.6887,-51.0413 9.8482,-2.55928 12.069,-2.76292 30.1318,-2.76292 18.0217,0 20.2984,0.20758 30.0314,2.73825 38.8527,10.102 68.5856,33.86417 86.0912,68.80301 11.562,23.07616 16.0584,50.07062 12.4332,74.6439 -1.514,10.26253 -6.3424,28.80362 -8.6709,33.29659 -0.4276,0.825 -1.9909,3.975 -3.4741,7 -4.9573,10.11072 -5.7123,11.33394 -12.9261,20.93985 -14.757,19.65054 -32.05,32.65713 -57.9847,43.61205 -2.2,0.92928 -5.575,2.02656 -7.5,2.43839 -1.925,0.41183 -7.0723,1.7075 -11.4383,2.87925 -6.8368,1.83482 -10.5835,2.12266 -27,2.07422 -17.5041,-0.0516 -19.9605,-0.28561 -30.0617,-2.86314 z m 45.8343,-79.41286 c 12.6713,-4.59943 20.9409,-11.18203 26.9688,-21.46713 5.4851,-9.35887 6.2022,-12.41593 6.1457,-26.20063 -0.051,-12.40668 -0.08,-12.55731 -3.8414,-20.17674 -2.0846,-4.22221 -5.3643,-9.51581 -7.2883,-11.76356 C 2833.7452,605.88437 2825.9951,600 2824.0698,600 2823.394,600 2823,603.13015 2823,608.5 v 8.5 h -23.5 -23.5 v -8.5 c 0,-4.675 -0.3825,-8.5 -0.85,-8.5 -1.5276,0 -8.568,5.58108 -12.3707,9.80653 -5.4293,6.03295 -9.8095,15.43758 -11.3801,24.43444 -4.7841,27.40419 13.2316,52.57284 41.6008,58.11772 4.8556,0.94905 16.0081,-0.39466 22.3343,-2.69093 z M 3090.5,771.32282 c -18.4261,-4.10145 -30.8654,-8.52199 -42.4498,-15.08527 -9.1566,-5.18778 -9.025,-5.10062 -17.2116,-11.39537 -27.3617,-21.03855 -45.9162,-55.34866 -48.697,-90.04819 -1.2392,-15.46299 0.1553,-33.69109 3.3996,-44.44037 1.3524,-4.48051 2.4588,-8.63071 2.4588,-9.22267 0,-1.49333 6.8118,-16.72879 9.2241,-20.63095 0.68,-1.1 2.5805,-4.25 4.2233,-7 1.6428,-2.75 3.2293,-5.225 3.5255,-5.5 0.2962,-0.275 1.8631,-2.3 3.482,-4.5 12.3049,-16.7212 38.0012,-36.09108 55.0451,-41.4929 2.2,-0.69726 4.45,-1.59028 5,-1.98448 0.55,-0.39421 6.175,-2.02306 12.5,-3.61968 10.7074,-2.70286 12.8095,-2.90187 30.5,-2.88747 17.307,0.0141 19.891,0.25047 29,2.6527 26.4324,6.9708 44.9935,17.31283 62.5036,34.82636 18.8113,18.81488 30.0851,40.04535 35.5814,67.00547 8.6084,42.22608 -5.2258,86.91291 -36.2425,117.06953 -5.4134,5.26325 -11.98,11.00075 -14.5925,12.75 -18.304,12.25586 -26.5195,16.01555 -46.1131,21.10295 -11.3036,2.93492 -12.7167,3.07214 -30.4949,2.96152 -10.2531,-0.0638 -19.542,-0.31633 -20.642,-0.56118 z m 33.2101,-80.45061 c 1.5345,-0.61668 3.6899,-1.45283 4.7899,-1.85811 6.8169,-2.51162 10.0998,-4.61526 16.2363,-10.40412 3.7848,-3.57039 8.1523,-8.82672 9.7057,-11.68075 3.3875,-6.22387 6.5228,-17.72037 6.5261,-23.92923 0,-6.47276 -2.4876,-16.10511 -5.9266,-22.91778 -3.8934,-7.71272 -15.7434,-20.04446 -19.2915,-20.07563 -0.4125,-0.004 -0.75,3.81841 -0.75,8.49341 v 8.5 h -23.5 -23.5 v -8.5 c 0,-4.675 -0.4009,-8.5 -0.8908,-8.5 -0.49,0 -3.0775,1.50011 -5.75,3.33358 -4.9558,3.39983 -10.5265,9.92773 -13.5354,15.86107 -5.1413,10.13823 -5.3238,10.95415 -5.3238,23.80535 0,12.27526 0.064,12.63484 3.5797,20 7.3538,15.40751 21.4179,26.02019 38.9203,29.36899 3.7603,0.71948 15.5405,-0.22292 18.7101,-1.49678 z M 1391.5,485.42209 c -1.1,-0.25747 -6.05,-1.18281 -11,-2.05632 -8.5251,-1.50439 -10.722,-2.10451 -21.5,-5.87312 -4.1916,-1.46561 -11.533,-4.71502 -15,-6.63921 -0.825,-0.45787 -3.3,-1.80325 -5.5,-2.98972 -2.2,-1.18648 -7.6,-4.8816 -12,-8.21138 -44.2439,-33.48237 -62.1403,-89.22382 -45.8001,-142.65234 2.274,-7.43535 7.96,-20.43736 11.5952,-26.51413 4.8861,-8.16786 6.8472,-10.92367 12.9073,-18.13807 20.5,-24.40454 50.6986,-41.15825 80.9716,-44.92169 34.9166,-4.34072 64.4365,2.71706 93.2619,22.29761 9.9959,6.79002 25.4037,22.30319 32.1271,32.34673 5.0936,7.60896 15.4366,27.82189 15.4375,30.16906 3e-4,0.69327 0.9025,3.6337 2.005,6.53429 6.7444,17.7448 6.5188,54.50525 -0.4641,75.60979 -4.9347,14.91439 -14.1705,33.33109 -19.4411,38.76678 -0.8802,0.90771 -3.8503,4.44742 -6.6003,7.86604 -5.8797,7.3092 -19.3152,18.91421 -28.5,24.61704 -21.0729,13.08412 -41.8239,19.24903 -67,19.90501 -7.425,0.19346 -14.4,0.1411 -15.5,-0.11637 z m 25.7636,-81.87068 c 14.0377,-3.35461 26.5187,-14.29005 33.3699,-29.23755 2.436,-5.31462 2.6642,-6.88724 2.6577,-18.31386 -0.01,-12.23203 -0.084,-12.66646 -3.5991,-20.26496 -2.8115,-6.07781 -5.2395,-9.39129 -11.1748,-15.25 -4.1705,-4.11677 -8.2431,-7.48504 -9.0501,-7.48504 -1.1745,0 -1.4672,1.69547 -1.4672,8.5 v 8.5 h -23.5 -23.5 v -8.5 c 0,-4.93448 -0.4147,-8.5 -0.9886,-8.5 -2.8503,0 -15.665,13.06963 -19.1843,19.56597 C 1357.6755,338.38341 1355,349.14333 1355,356 c 0,21.72777 15.9115,42.4727 36.5,47.58771 6.7152,1.66831 18.7012,1.65142 25.7636,-0.0363 z M 1702.5,485.3083 c -21.1858,-2.76849 -38.8507,-9.03949 -56.5798,-20.08567 -9.1733,-5.71543 -11.7898,-7.92822 -23.6199,-19.97558 -19.5001,-19.85824 -31.2819,-43.86928 -34.8742,-71.07319 -1.6911,-12.80675 -1.7804,-21.10122 -0.3659,-34.00342 1.4535,-13.2578 6.4839,-30.48613 12.1155,-41.4938 0.5131,-1.00285 1.8966,-3.70285 3.0745,-6 1.178,-2.29715 2.4235,-4.40164 2.7679,-4.67664 0.3444,-0.275 2.6498,-3.65074 5.1232,-7.50165 5.8168,-9.05638 21.2603,-24.51356 30.2813,-30.30803 3.8926,-2.50034 7.3024,-4.82784 7.5774,-5.17223 0.275,-0.34439 2.3795,-1.58992 4.6766,-2.76784 2.2972,-1.17792 4.9972,-2.56146 6,-3.07453 29.9705,-15.33327 74.0913,-17.28736 103.8254,-4.59837 1.6511,0.7046 5.1634,2.20758 7.8051,3.33996 16.2587,6.96931 33.31,20.49545 48.0481,38.1147 4.0673,4.86248 8.6448,11.65433 8.6448,12.82674 0,0.54911 0.6017,1.60007 1.3371,2.33546 1.9926,1.99259 7.1295,13.17366 10.4776,22.80579 9.4014,27.04659 9.185,58.87124 -0.5814,85.5 -3.5363,9.64201 -11.2187,25.17952 -14.2291,28.77806 -0.5622,0.67207 -2.8937,3.69694 -5.181,6.72194 -6.2909,8.31976 -15.5223,17.53745 -23.3232,23.28862 -3.85,2.83839 -7.225,5.46355 -7.5,5.83369 -0.55,0.74026 -7.7189,4.74613 -15.5,8.66116 -6.8939,3.46862 -20.0816,8.24848 -25.5,9.24243 -18.1393,3.32744 -23.3844,3.95662 -31.881,3.82427 -5.2904,-0.0824 -10.969,-0.32625 -12.619,-0.54187 z m 26.8183,-81.89079 c 11.4441,-2.96546 20.6697,-9.62213 27.4311,-19.7927 14.5677,-21.91299 9.7693,-51.32859 -10.9394,-67.06166 -2.5795,-1.95973 -4.942,-3.56315 -5.25,-3.56315 -0.308,0 -0.56,3.825 -0.56,8.5 v 8.5 h -24 -24 v -8.5 c 0,-4.675 -0.4155,-8.5 -0.9233,-8.5 -0.5078,0 -2.3973,1.2375 -4.1988,2.75 -7.4891,6.28749 -12.3025,12.17533 -15.7369,19.25 -3.482,7.17255 -3.6554,8.03054 -3.9705,19.65171 -0.3145,11.60218 -0.1946,12.47262 2.652,19.24763 5.8075,13.82234 18.277,25.41213 31.367,29.1542 7.9349,2.26835 20.1687,2.42665 28.1288,0.36397 z M 2013.5,485.35403 c -24.9429,-3.97015 -41.0376,-10.03036 -60,-22.59203 -10.8072,-7.15928 -26.2023,-22.45187 -32.4781,-32.262 -2.463,-3.85 -4.7963,-7.23355 -5.1853,-7.51899 -0.3889,-0.28545 -2.5768,-4.56045 -4.862,-9.5 -2.2852,-4.93956 -4.5576,-9.7516 -5.0497,-10.69342 -0.8152,-1.55997 -2.5996,-7.80494 -6.4998,-22.74769 -0.9867,-3.78049 -1.4251,-11.1822 -1.4251,-24.06166 0,-15.83052 0.3174,-19.78413 2.1305,-26.5399 1.1717,-4.36609 2.4689,-9.51334 2.8826,-11.43834 1.9575,-9.10814 12.2284,-29.44916 20.0243,-39.65742 21.8175,-28.56849 52.2837,-46.50658 86.4626,-50.90796 25.5214,-3.28652 46.145,-0.36353 71.5,10.13375 3.575,1.48009 6.725,3.03213 7,3.44896 0.275,0.41684 2.075,1.42161 4,2.23282 1.925,0.81121 6.425,3.64748 10,6.30283 27.239,20.23186 43.4518,44.15798 51.6555,76.2309 2.2474,8.78637 2.8142,13.50735 3.1476,26.21612 0.4136,15.77072 -0.3147,22.71496 -3.828,36.5 -7.3244,28.73806 -25.6989,55.66554 -49.4751,72.50476 -22.6285,16.02636 -46.0602,23.83706 -73.5,24.50042 -7.425,0.1795 -14.85,0.11148 -16.5,-0.15115 z m 26.5,-81.74495 c 13.1404,-3.1529 25.2769,-13.09552 31.3029,-25.64433 4.2691,-8.89034 5.6398,-14.34774 5.6727,-22.58711 0.045,-11.40054 -6.8544,-27.34755 -15.1263,-34.9599 -4.4635,-4.10764 -8.9189,-7.41774 -9.9842,-7.41774 -0.4758,0 -0.8651,3.825 -0.8651,8.5 v 8.5 h -24 -24 v -8.53518 c 0,-8.53423 -3e-4,-8.53506 -2.25,-7.35531 -11.1168,5.82955 -20.3994,20.6435 -22.9086,36.55966 -1.2152,7.70797 -0.033,14.60733 4.2767,24.95988 5.3418,12.83153 19.1255,24.79992 32.3819,28.11724 5.8259,1.45788 19.151,1.38618 25.5,-0.13721 z m 286,81.80631 c -1.375,-0.24419 -6.55,-1.15649 -11.5,-2.02734 -4.95,-0.87085 -11.475,-2.47482 -14.5,-3.56437 -3.025,-1.08956 -6.4,-2.2132 -7.5,-2.49698 -1.1,-0.28378 -6.8022,-2.93179 -12.6716,-5.88448 -25.1589,-12.65664 -44.6679,-32.19355 -56.8554,-56.9367 -5.3129,-10.78616 -9.973,-22.41075 -9.973,-24.87729 0,-0.84186 -0.67,-4.10297 -1.4889,-7.24691 -6.478,-24.87085 -2.3434,-57.60984 10.5935,-83.88132 7.3469,-14.91954 20.9321,-32.38391 31.9854,-41.11844 3.3976,-2.68486 6.9714,-5.62324 7.9419,-6.52973 0.9704,-0.90649 3.9386,-2.93149 6.5959,-4.5 2.6573,-1.56851 5.7407,-3.39501 6.8519,-4.05889 1.1111,-0.66388 3.1204,-1.69857 4.4651,-2.2993 1.3446,-0.60073 5.3135,-2.42005 8.8197,-4.04294 3.5063,-1.62288 6.9217,-2.9507 7.5899,-2.9507 0.6682,0 3.8993,-0.94977 7.1803,-2.1106 6.7714,-2.39579 24.5401,-4.8713 34.9653,-4.8713 11.0018,0 28.1101,2.55725 38.6542,5.77784 8.2984,2.53465 29.3495,12.12955 30.8458,14.05923 0.275,0.35466 3.7773,2.86594 7.7828,5.58063 12.5369,8.49669 28.5498,26.81364 36.9918,42.3142 0.674,1.2375 1.6576,3.0375 2.1859,4 2.4971,4.54981 7.0542,16.70695 9.6525,25.75 2.7888,9.70642 2.8722,10.66056 2.8416,32.5 -0.032,22.48394 -0.034,22.50817 -3.356,33.94451 -1.8286,6.29449 -3.6963,12.14449 -4.1505,13 -0.4542,0.85552 -2.4873,5.13024 -4.5178,9.49938 -7.2939,15.69412 -17.3613,28.85134 -31.6844,41.40879 -16.4072,14.38466 -36.8633,24.51203 -59.2459,29.33143 -8.5992,1.85156 -32.7551,3.25152 -38.5,2.23128 z m 25.3134,-81.82478 c 14.8759,-3.87467 26.2666,-13.93699 33.4401,-29.54024 3.4477,-7.49905 4.3267,-23.20037 1.7474,-31.21084 -3.7574,-11.66891 -9.7469,-20.28312 -19.0953,-27.46295 C 2362.4541,311.57364 2362,312.08799 2362,321.5 v 8.5 h -23.5 -23.5 v -8.5 c 0,-4.675 -0.268,-8.5 -0.5956,-8.5 -1.0756,0 -6.8308,4.24441 -10.7213,7.90686 -8.439,7.94418 -14.6567,22.84593 -14.6424,35.09314 0.025,21.77493 15.8832,42.45324 36.4593,47.54222 6.9198,1.71144 19.3392,1.73472 25.8134,0.0484 z M 2635,484.96498 c -21.4518,-3.81258 -27.9948,-5.71866 -41,-11.94381 -22.2639,-10.65701 -43.5291,-29.80673 -55.1531,-49.66649 -22.2858,-38.0758 -24.6937,-83.24918 -6.5304,-122.51582 8.8324,-19.09457 27.9756,-41.44846 45.1835,-52.76164 7.9655,-5.23686 27.2887,-15.05499 29.7221,-15.10181 0.7028,-0.0135 3.9779,-0.93376 7.2779,-2.04498 7.47,-2.51539 25.2616,-4.94069 35.9364,-4.89875 34.9809,0.13745 67.6201,13.99404 92.1626,39.12654 41.7246,42.72758 49.1387,105.94199 18.5541,158.19646 -8.9202,15.24017 -29.1541,35.43691 -43.9196,43.8388 -12.0426,6.85252 -27.8419,13.3249 -36.2335,14.84353 -18.7216,3.38804 -23.3755,3.94937 -31.881,3.84537 -5.2904,-0.0647 -11.644,-0.47752 -14.119,-0.9174 z m 28.2234,-81.52286 c 11.6701,-3.02402 21.5159,-10.30594 28.3235,-20.94794 4.6702,-7.30073 5.5579,-9.68912 6.8739,-18.49418 1.5428,-10.32183 0.2721,-20.745 -3.5318,-28.97301 -1.646,-3.56015 -3.3076,-6.71015 -3.6925,-7 -0.385,-0.28984 -2.2457,-2.32699 -4.135,-4.52699 -3.2191,-3.74842 -11.2577,-10.5 -12.5015,-10.5 -0.308,0 -0.56,3.825 -0.56,8.5 v 8.5 h -24 -24 v -8.5 c 0,-4.675 -0.2912,-8.5 -0.647,-8.5 -1.0443,0 -9.639,7.24824 -12.2846,10.36015 -1.3373,1.57308 -3.041,3.46961 -3.7859,4.2145 -0.7449,0.74489 -2.8004,4.40782 -4.5679,8.13985 -3.0846,6.51328 -3.2135,7.28697 -3.214,19.2855 -7e-4,13.84929 0.8031,17.25786 6.1857,26.23333 9.1426,15.24536 23.7161,23.53261 41.6694,23.69543 4.3206,0.0392 10.561,-0.62981 13.8677,-1.48664 z M 2948,485.41488 c -14.1595,-2.51746 -20.9149,-4.13511 -29,-6.94431 -22.2854,-7.74318 -40.8951,-20.39837 -56.5487,-38.45498 -7.8791,-9.08861 -11.7045,-15.00006 -17.4824,-27.01559 -2.2481,-4.675 -4.5051,-9.27229 -5.0155,-10.21621 -0.5105,-0.94391 -1.3465,-3.41891 -1.8579,-5.5 -0.5114,-2.08108 -1.9311,-6.93379 -3.1551,-10.78379 -2.0185,-6.34938 -2.2338,-9.13776 -2.3169,-30 -0.09,-22.45452 -0.024,-23.23716 2.7725,-33 2.7084,-9.45591 7.2974,-21.58998 9.833,-26 0.6325,-1.1 1.9378,-3.61007 2.9007,-5.57793 0.9629,-1.96786 2.4526,-4.16046 3.3105,-4.87244 0.8579,-0.71199 1.5598,-1.71337 1.5598,-2.2253 0,-1.90987 11.0309,-15.57047 18.1385,-22.46263 10.6044,-10.2829 24.9507,-19.68314 40.8615,-26.77407 11.7798,-5.24987 34.124,-9.56953 49.5,-9.56953 10.2731,0 27.9818,2.47379 36,5.02897 9.5151,3.03219 23.6487,8.87046 25.5787,10.566 0.8683,0.76281 1.8741,1.38693 2.235,1.38693 0.9643,0 10.8589,6.10672 13.1863,8.13827 1.1,0.96019 4.9803,4.22649 8.6228,7.25846 7.6054,6.33058 18.6879,19.24847 24.0715,28.05806 4.0987,6.70708 10.8057,19.98503 10.8057,21.39233 0,0.49721 1.0471,3.32251 2.327,6.27845 6.4092,14.80289 8.9493,45.75879 5.2001,63.37443 -0.9365,4.4 -2.0988,9.90805 -2.5829,12.24012 -2.1166,10.19718 -12.5551,31.64065 -21.061,43.2654 -11.897,16.2591 -27.1923,29.12024 -45.7116,38.4367 -5.8694,2.95269 -11.5716,5.60628 -12.6716,5.89689 -1.1,0.2906 -4.025,1.28657 -6.5,2.21326 -8.6163,3.22616 -23.2775,5.58302 -37,5.94796 -7.425,0.19747 -14.625,0.15902 -16,-0.0855 z m 26,-81.8058 c 15.9625,-3.83004 29.0481,-16.41659 34.9416,-33.60908 0.6599,-1.925 1.438,-7.1 1.7291,-11.5 1.1184,-16.90447 -7.106,-33.62059 -21.3251,-43.34314 -1.7349,-1.18627 -3.4224,-2.15686 -3.75,-2.15686 -0.3276,0 -0.5956,3.825 -0.5956,8.5 v 8.5 h -23.5 -23.5 v -8.5 c 0,-9.50243 -0.4223,-9.94074 -5.6997,-5.91548 -8.8156,6.72395 -15.5417,16.74956 -19.3276,28.80841 -2.0283,6.4607 -0.7478,22.93128 2.3058,29.65744 6.8067,14.99361 18.514,25.58247 32.5223,29.41556 6.2465,1.70924 19.3733,1.78097 26.1992,0.14315 z"
       id="path1495" />
  </g>
</svg>
